<svg width="32" height="32" viewBox="0 0 32 32" fill="none" xmlns="http://www.w3.org/2000/svg">
<mask id="mask0_393_937" style="mask-type:alpha" maskUnits="userSpaceOnUse" x="0" y="0" width="32" height="32">
<rect width="32" height="32" fill="#D9D9D9"/>
</mask>
<g mask="url(#mask0_393_937)">
<path d="M9.33333 18.2215V15.9994H22.6667V18.2215H9.33333ZM9.33333 23.9994V21.7772H18.6444V23.9994H9.33333ZM6.2222 29.3327C5.6222 29.3327 5.10183 29.1123 4.6611 28.6716C4.22037 28.2309 4 27.7105 4 27.1105V7.11045C4 6.51045 4.22037 5.99008 4.6611 5.54935C5.10183 5.10859 5.6222 4.88822 6.2222 4.88822H8.1111V2.66602H10.4444V4.88822H21.5556V2.66602H23.8889V4.88822H25.7778C26.3778 4.88822 26.8982 5.10859 27.3389 5.54935C27.7796 5.99008 28 6.51045 28 7.11045V27.1105C28 27.7105 27.7796 28.2309 27.3389 28.6716C26.8982 29.1123 26.3778 29.3327 25.7778 29.3327H6.2222ZM6.2222 27.1105H25.7778V13.1105H6.2222V27.1105Z" fill="#08A647"/>
</g>
</svg>
