<svg width="32" height="32" viewBox="0 0 32 32" fill="none" xmlns="http://www.w3.org/2000/svg">
<path fill-rule="evenodd" clip-rule="evenodd" d="M14.6544 3.52094C15.0226 3.18576 15.5027 3 16.0006 3C16.4986 3 16.9786 3.18576 17.3469 3.52094L17.3603 3.53339L27.3545 12.9704C27.5569 13.1564 27.7189 13.3822 27.8301 13.6337C27.9429 13.8885 28.0012 14.1642 28.0012 14.4429V26.0005C28.0012 26.5309 27.7905 27.0396 27.4155 27.4147C27.0404 27.7898 26.5317 28.0005 26.0012 28.0005H20C19.4696 28.0005 18.9609 27.7898 18.5858 27.4147C18.2107 27.0396 18 26.5309 18 26.0005V20.0005H14V26.0005C14 26.5309 13.7893 27.0396 13.4142 27.4147C13.0391 27.7898 12.5304 28.0005 12 28.0005H6C5.46957 28.0005 4.96086 27.7898 4.58579 27.4147C4.21071 27.0396 4 26.5309 4 26.0005V14.443C4.00003 14.1643 4.05831 13.8885 4.17111 13.6337C4.28239 13.3822 4.4443 13.1565 4.6467 12.9705L14.641 3.53339L14.6544 3.52094ZM16.0006 5.00023L6.01405 14.4301L6 14.4431V26.0005H12V20.0005C12 19.47 12.2107 18.9613 12.5858 18.5863C12.9609 18.2112 13.4696 18.0005 14 18.0005H18C18.5304 18.0005 19.0391 18.2112 19.4142 18.5863C19.7893 18.9613 20 19.47 20 20.0005V26.0005H26.0012V14.4431L25.9872 14.4301L16.0006 5.00023Z" fill="#08A647"/>
</svg>
