<svg width="32" height="32" viewBox="0 0 32 32" fill="none" xmlns="http://www.w3.org/2000/svg">
<mask id="mask0_393_1072" style="mask-type:alpha" maskUnits="userSpaceOnUse" x="0" y="0" width="32" height="32">
<rect width="32" height="32" fill="#D9D9D9"/>
</mask>
<g mask="url(#mask0_393_1072)">
<path d="M14.4602 29.3327C13.4682 29.3327 12.6262 28.6056 12.4816 27.6243L12.2835 26.2803C12.1772 25.5587 11.6775 24.966 11.0422 24.6077C11.0115 24.5903 10.9808 24.5728 10.95 24.5549C10.9255 24.5408 10.9012 24.5265 10.8771 24.5123C10.2366 24.1344 9.45214 24.0221 8.77278 24.3245L7.58568 24.8528C6.64747 25.2704 5.54548 24.9095 5.03597 24.0179L3.52619 21.3758C3.02328 20.4957 3.2583 19.3785 4.07319 18.7757L5.69856 17.5732C5.99783 17.3518 6.13481 16.977 6.12221 16.6049C6.11479 16.3864 6.11108 16.1845 6.11108 15.9993C6.11108 15.8142 6.11479 15.6123 6.12221 15.3938C6.13481 15.0217 5.99783 14.6469 5.69857 14.4255L4.07319 13.223C3.2583 12.6202 3.02328 11.503 3.52619 10.6229L5.03597 7.98081C5.54548 7.08918 6.64747 6.72833 7.58568 7.1459L8.77278 7.67423C9.45214 7.97659 10.2367 7.86415 10.8784 7.48848C10.904 7.47354 10.9297 7.45864 10.9555 7.44378C10.9706 7.43514 10.9856 7.42656 11.0007 7.41807C11.6539 7.04841 12.1796 6.44327 12.2885 5.70062L12.4826 4.37593C12.6266 3.3939 13.469 2.66602 14.4615 2.66602H17.5398C18.5317 2.66602 19.3738 3.39309 19.5184 4.37444L19.7165 5.71841C19.8228 6.43996 20.3208 7.03454 20.9634 7.37957C20.9959 7.39701 21.0284 7.41471 21.0611 7.43268C21.7451 7.80918 22.5792 7.96264 23.2925 7.64517L24.4143 7.1459C25.3525 6.72833 26.4545 7.08918 26.964 7.98081L28.4665 10.6102C28.9725 11.4957 28.7312 12.6201 27.9063 13.22L26.3221 14.3721C26.0099 14.5992 25.8647 14.9857 25.8777 15.3716C25.8852 15.5901 25.8889 15.7993 25.8889 15.9993C25.8889 16.1993 25.8852 16.4049 25.8777 16.616C25.8645 16.994 25.9969 17.3771 26.3019 17.6008L27.9055 18.7772C28.7253 19.3786 28.9635 20.4993 28.459 21.3821L26.9538 24.0162C26.4439 24.9086 25.3407 25.2692 24.4022 24.8503L23.228 24.3262C22.5482 24.0228 21.7622 24.133 21.1276 24.5222C21.1037 24.5368 21.0797 24.5514 21.0555 24.566C21.0406 24.575 21.0257 24.584 21.0107 24.5928C20.3584 24.98 19.8189 25.5848 19.7084 26.3352L19.5184 27.6243C19.3738 28.6056 18.5317 29.3327 17.5398 29.3327H14.4602ZM14.4028 25.7025C14.5027 26.5067 15.1862 27.1105 15.9965 27.1105C16.8051 27.1105 17.4876 26.5094 17.5897 25.7073L17.7047 24.8036C17.809 23.9841 18.4181 23.3362 19.173 23.0007C19.4232 22.8896 19.6674 22.765 19.9055 22.6271C20.1467 22.4875 20.3795 22.3369 20.6041 22.1753C21.2673 21.6977 22.1259 21.51 22.8773 21.8314L23.8353 22.241C24.5484 22.546 25.3766 22.2645 25.7562 21.5882C26.1305 20.9214 25.9505 20.0803 25.3361 19.6251L24.247 18.8183C23.716 18.4249 23.4945 17.7479 23.5889 17.0938C23.6407 16.7345 23.6666 16.3697 23.6666 15.9993C23.6666 15.629 23.6444 15.2642 23.6 14.9049C23.5192 14.252 23.7209 13.5702 24.2495 13.1786L25.3376 12.3725C25.9512 11.9179 26.1309 11.0779 25.7571 10.4121C25.3773 9.73535 24.5478 9.4547 23.8351 9.76178L22.9462 10.1448C22.1609 10.4831 21.2634 10.2609 20.5801 9.74698C20.374 9.59197 20.1603 9.44832 19.9389 9.31602C19.7284 9.1902 19.5109 9.078 19.2866 8.97941C18.4837 8.62663 17.804 7.96149 17.6959 7.09125L17.5971 6.29619C17.4972 5.49199 16.8138 4.88822 16.0034 4.88822C15.1948 4.88822 14.5124 5.48934 14.4103 6.29143L14.2997 7.16007C14.1932 7.99689 13.56 8.65079 12.7868 8.98806C12.5419 9.09488 12.3037 9.21531 12.0722 9.34935C11.8437 9.48162 11.6237 9.62474 11.4121 9.77871C10.7343 10.2718 9.85463 10.4804 9.08401 10.1508L8.16318 9.75702C7.45096 9.45243 6.62366 9.73358 6.2445 10.4091C5.86998 11.0763 6.05115 11.9179 6.66701 12.372L7.74707 13.1682C8.28187 13.5625 8.50694 14.2419 8.41108 14.8994C8.35923 15.2549 8.33331 15.6216 8.33331 15.9993C8.33331 16.3697 8.35923 16.7327 8.41108 17.0883C8.50699 17.746 8.28272 18.4258 7.74862 18.8215L6.66236 19.6262C6.0488 20.0808 5.86904 20.9208 6.24281 21.5866C6.62267 22.2634 7.45219 22.544 8.16489 22.2369L9.11094 21.8293C9.86807 21.5031 10.7344 21.6953 11.4024 22.1784C11.6249 22.3393 11.8556 22.4889 12.0944 22.6271C12.3313 22.7643 12.5741 22.8882 12.8229 22.9989C13.5797 23.3357 14.1896 23.9865 14.2917 24.8084L14.4028 25.7025ZM16.0222 20.4438C17.2518 20.4438 18.3 20.0105 19.1666 19.1438C20.0333 18.2771 20.4666 17.229 20.4666 15.9993C20.4666 14.7697 20.0333 13.7216 19.1666 12.8549C18.3 11.9882 17.2518 11.5549 16.0222 11.5549C14.7852 11.5549 13.7352 11.9882 12.8722 12.8549C12.0092 13.7216 11.5777 14.7697 11.5777 15.9993C11.5777 17.229 12.0092 18.2771 12.8722 19.1438C13.7352 20.0105 14.7852 20.4438 16.0222 20.4438Z" fill="#08A647"/>
</g>
</svg>
